<?xml version="1.0" standalone="no"?>
<!DOCTYPE svg PUBLIC "-//W3C//DTD SVG 20010904//EN"
 "http://www.w3.org/TR/2001/REC-SVG-20010904/DTD/svg10.dtd">
<svg version="1.0" xmlns="http://www.w3.org/2000/svg"
 width="512.000000pt" height="512.000000pt" viewBox="0 0 512.000000 512.000000"
 preserveAspectRatio="xMidYMid meet">

<g transform="translate(0.000000,512.000000) scale(0.100000,-0.100000)"
fill="#000000" stroke="none">
<path d="M3036 4950 c-88 -11 -210 -38 -258 -57 -41 -16 -64 -57 -55 -101 5
-25 0 -30 -59 -65 -35 -21 -91 -60 -125 -88 -60 -51 -61 -51 -79 -31 -42 45
-108 35 -130 -19 -11 -25 -10 -38 8 -84 l20 -55 -49 -81 c-76 -127 -139 -316
-139 -418 0 -28 -22 -61 -40 -61 -19 0 -82 -64 -103 -104 -30 -57 -30 -155 0
-212 l22 -41 -39 -38 c-117 -114 -114 -320 5 -440 47 -46 126 -84 194 -92 40
-5 51 -10 51 -24 0 -31 51 -181 83 -244 61 -122 167 -255 256 -320 38 -28 41
-33 41 -81 l0 -52 -227 -4 c-246 -5 -306 -15 -443 -73 -170 -71 -339 -225
-416 -377 -31 -61 -31 -93 2 -123 52 -49 85 -32 159 79 62 95 148 179 234 230
64 37 178 82 187 74 3 -3 -22 -196 -55 -429 -34 -233 -61 -427 -61 -431 0 -3
-17 -2 -37 4 -21 6 -61 8 -89 5 l-51 -5 -6 49 c-13 105 -89 209 -184 251 -62
27 -155 34 -215 15 -40 -13 -53 -13 -85 -1 -21 7 -45 13 -54 14 -12 0 -19 13
-23 43 -9 61 -48 138 -91 182 -77 77 -210 112 -307 82 -40 -12 -54 -13 -85 -2
-25 8 -83 12 -168 11 -109 -2 -136 -6 -170 -23 -69 -36 -116 -100 -130 -176
-7 -36 -8 -37 -51 -37 -54 0 -89 -15 -103 -47 -15 -34 -15 -673 0 -707 7 -13
25 -30 40 -37 28 -11 29 -13 29 -89 0 -76 -1 -78 -29 -89 -45 -19 -51 -46 -51
-231 0 -180 6 -210 47 -229 34 -16 1952 -16 1986 0 39 18 47 50 47 184 l0 125
440 0 440 0 0 -125 c0 -71 5 -135 11 -149 26 -55 112 -55 138 0 7 17 11 127
11 341 l0 316 228 608 227 609 153 0 c155 0 184 -5 201 -38 5 -10 22 -106 37
-213 24 -169 31 -197 51 -217 33 -33 88 -27 117 11 l20 28 -27 195 c-15 108
-26 199 -23 201 8 8 78 -18 158 -59 95 -49 192 -137 253 -228 91 -136 125
-264 125 -465 0 -120 1 -127 25 -150 39 -40 104 -27 126 27 19 45 6 304 -20
403 -76 289 -289 520 -569 616 -104 36 -215 49 -413 49 l-189 0 0 53 c0 49 3
54 41 82 143 105 280 321 328 516 l16 67 48 6 c66 7 146 46 192 91 119 120
122 326 5 440 l-39 38 22 41 c29 56 30 155 0 211 -38 71 -103 118 -182 131
-40 6 -41 8 -41 45 l0 39 -602 0 c-652 0 -696 3 -782 54 -50 29 -126 103 -126
122 0 7 -18 59 -40 114 -22 55 -40 111 -40 124 0 17 19 41 62 80 34 31 64 56
68 56 4 0 19 -58 34 -128 15 -71 33 -150 41 -177 8 -26 15 -63 15 -82 0 -91
142 -116 164 -29 3 13 -7 158 -24 322 -16 164 -28 300 -26 301 1 1 36 10 77
19 131 30 470 20 528 -15 11 -7 11 -37 -3 -177 -9 -93 -21 -200 -26 -239 -5
-38 -12 -102 -15 -142 -7 -68 -6 -73 19 -98 21 -21 34 -26 68 -23 68 5 74 20
98 273 12 121 23 221 24 223 5 5 120 -85 155 -122 l35 -36 -47 -118 c-26 -64
-47 -131 -47 -148 0 -41 36 -74 81 -74 45 0 71 27 100 103 12 31 25 57 29 57
4 0 21 -31 38 -70 17 -38 40 -74 51 -80 54 -28 121 11 121 70 0 36 -51 151
-103 232 l-35 56 20 56 c18 47 19 60 8 85 -22 54 -88 64 -129 19 -19 -19 -19
-19 -82 32 -35 28 -92 68 -126 88 -49 29 -61 41 -57 55 3 10 3 34 -1 54 -5 29
-13 38 -48 53 -113 50 -422 81 -591 60z m-236 -1125 c0 -9 11 -27 25 -40 l24
-25 660 0 c462 0 667 -3 684 -11 48 -22 56 -89 15 -126 -19 -17 -69 -18 -1009
-18 l-988 0 -22 22 c-28 28 -28 79 1 107 19 19 35 21 216 26 191 5 196 6 215
29 10 13 19 29 19 37 0 11 18 14 80 14 65 0 80 -3 80 -15z m-560 -546 l0 -161
-27 7 c-72 17 -133 89 -133 155 0 49 42 113 90 138 24 12 50 22 57 22 10 0 13
-36 13 -161z m1757 -71 c-2 -137 -9 -250 -16 -273 -29 -98 -66 -181 -111 -249
-177 -271 -494 -409 -810 -352 -328 60 -586 318 -646 646 -8 46 -13 150 -14
268 l0 192 801 0 801 0 -5 -232z m248 204 c33 -19 75 -92 75 -132 0 -66 -61
-138 -132 -155 l-28 -7 0 162 0 162 28 -7 c15 -3 41 -14 57 -23z m-699 -1380
c-30 -79 -61 -151 -70 -160 -29 -33 -122 -82 -186 -98 -110 -28 -233 -2 -331
70 -44 32 -48 41 -102 185 -49 130 -69 211 -53 211 3 0 45 -13 93 -30 123 -41
217 -54 353 -47 113 5 253 37 319 71 26 14 26 14 29 -22 2 -25 -15 -82 -52
-180z m-653 -559 l227 -608 0 -112 0 -113 -440 0 -440 0 0 135 c0 131 -1 137
-25 160 -13 14 -31 25 -40 25 -11 0 -15 10 -15 38 0 21 32 258 70 527 39 269
70 493 70 497 0 5 11 20 25 33 24 24 28 25 182 25 l158 0 228 -607z m-2288
195 c20 -9 37 -9 75 1 46 12 53 11 95 -10 41 -21 49 -22 78 -10 98 40 154 39
208 -6 60 -51 74 -124 39 -202 -25 -55 -25 -72 1 -105 28 -35 80 -36 121 -1
36 30 73 32 113 5 38 -25 58 -25 113 1 75 37 153 16 206 -55 21 -28 23 -51 14
-175 -2 -36 1 -46 22 -62 14 -10 37 -27 52 -39 36 -28 83 -26 120 5 38 32 81
32 113 0 33 -33 32 -70 -4 -106 -37 -36 -55 -36 -110 1 -24 17 -52 30 -61 30
-9 0 -37 -13 -61 -30 -24 -16 -52 -30 -62 -30 -28 0 -77 54 -77 85 0 37 -38
71 -90 79 -58 9 -97 33 -122 76 -36 59 -59 80 -92 80 -16 0 -47 12 -68 27 -22
14 -52 26 -68 26 -16 0 -46 -12 -68 -26 -43 -30 -51 -32 -85 -16 -27 12 -47
47 -47 84 0 40 -10 54 -62 82 -32 18 -58 41 -74 69 -32 55 -52 71 -96 78 -21
3 -53 9 -72 12 -19 3 -51 1 -71 -6 -30 -10 -40 -9 -60 4 -50 33 -56 80 -15
124 23 24 56 28 95 10z m2485 -57 c64 -15 165 -13 235 3 33 8 61 13 63 12 5
-5 -181 -496 -188 -496 -5 0 -134 336 -188 489 -4 9 1 12 14 8 10 -4 39 -11
64 -16z m-2290 -532 l0 -41 -142 4 c-128 3 -147 5 -180 26 -20 12 -39 29 -42
37 -5 13 20 15 179 15 l185 0 0 -41z m367 -25 c-3 -3 -12 -4 -19 -1 -8 3 -5 6
6 6 11 1 17 -2 13 -5z m-367 -295 l0 -41 -142 4 c-128 3 -147 5 -180 26 -20
12 -39 29 -42 37 -5 13 20 15 179 15 l185 0 0 -41z m640 0 l0 -41 -142 4
c-128 3 -147 5 -180 26 -20 12 -39 29 -42 37 -5 13 20 15 179 15 l185 0 0 -41z
m640 -14 c0 -23 -4 -25 -47 -25 l-48 0 45 25 c25 13 46 24 48 25 1 0 2 -11 2
-25z m-245 -15 c25 -11 -1 -11 -35 0 -20 6 -21 8 -5 8 11 0 29 -3 40 -8z
m-1035 -250 l0 -80 -122 0 c-141 0 -184 9 -224 48 l-29 27 85 3 c70 2 89 7
107 24 13 12 23 30 23 40 0 16 9 18 80 18 l80 0 0 -80z m640 -41 l0 -41 -142
4 c-128 3 -147 5 -180 26 -20 12 -39 29 -42 37 -5 13 20 15 179 15 l185 0 0
-41z m640 0 l0 -41 -142 4 c-128 3 -147 5 -180 26 -20 12 -39 29 -42 37 -5 13
20 15 179 15 l185 0 0 -41z"/>
<path d="M2715 3344 c-59 -22 -105 -70 -105 -111 0 -70 78 -100 139 -52 13 10
36 19 51 19 15 0 38 -9 51 -19 60 -47 139 -17 139 54 0 61 -101 126 -194 124
-22 0 -59 -7 -81 -15z"/>
<path d="M3515 3344 c-57 -21 -105 -71 -105 -109 0 -71 79 -101 139 -54 13 10
36 19 51 19 15 0 38 -9 51 -19 60 -47 139 -17 139 54 0 61 -101 126 -194 124
-22 0 -59 -7 -81 -15z"/>
<path d="M2749 2861 c-32 -26 -31 -81 2 -117 81 -89 264 -170 409 -181 154
-12 347 53 460 155 47 43 54 53 54 87 0 46 -31 75 -79 75 -25 0 -46 -11 -80
-40 -183 -158 -439 -158 -630 -1 -56 46 -98 53 -136 22z"/>
<path d="M2425 1095 c-16 -15 -25 -36 -25 -55 0 -19 9 -40 25 -55 23 -24 28
-25 175 -25 147 0 152 1 175 25 16 15 25 36 25 55 0 19 -9 40 -25 55 -23 24
-28 25 -175 25 -147 0 -152 -1 -175 -25z"/>
<path d="M1414 3755 c-35 -17 -107 -83 -246 -222 -187 -189 -197 -201 -213
-258 -16 -52 -16 -67 -5 -115 15 -68 15 -72 -1 -141 -13 -56 -10 -75 26 -164
8 -19 7 -19 -16 2 -56 51 -151 67 -213 38 -68 -32 -90 -70 -225 -387 -105
-245 -131 -316 -131 -353 0 -113 102 -206 214 -192 53 6 639 257 673 288 34
32 63 96 63 142 0 60 -26 107 -102 184 -69 70 -70 72 -59 104 26 74 4 172 -54
241 -40 47 -34 54 43 50 106 -6 134 13 364 245 187 189 197 201 213 258 15 51
16 69 7 115 -33 154 -198 235 -338 165z m161 -160 c50 -49 42 -62 -167 -272
-181 -181 -195 -193 -229 -193 -29 0 -43 6 -58 26 -42 53 -35 63 171 271 173
174 196 193 226 193 22 0 41 -8 57 -25z m-675 -900 l54 -55 -39 -40 c-30 -31
-39 -48 -39 -74 0 -83 83 -104 155 -39 l42 38 53 -60 c29 -33 54 -66 54 -72 0
-7 -10 -19 -22 -27 -49 -31 -571 -247 -584 -242 -27 10 -26 36 6 113 53 128
202 477 212 496 16 32 51 19 108 -38z"/>
<path d="M4226 1409 c-32 -25 -33 -54 -6 -234 14 -96 20 -184 20 -332 l0 -203
-375 0 -376 0 -24 -25 c-33 -32 -34 -83 -2 -113 23 -22 27 -22 400 -22 l377 0
0 -125 c0 -71 5 -135 11 -149 26 -55 112 -55 138 0 7 16 11 99 11 229 l0 205
200 0 200 0 0 -205 c0 -222 5 -246 51 -266 37 -15 82 2 98 37 15 34 15 673 0
707 -22 49 -86 61 -124 22 -21 -20 -25 -34 -25 -80 l0 -55 -200 0 -200 0 0
129 c0 76 -8 188 -20 273 -26 184 -26 184 -52 208 -28 26 -68 26 -102 -1z"/>
<path d="M3625 1095 c-16 -15 -25 -36 -25 -55 0 -19 9 -40 25 -55 23 -24 28
-25 175 -25 147 0 152 1 175 25 16 15 25 36 25 55 0 19 -9 40 -25 55 -23 24
-28 25 -175 25 -147 0 -152 -1 -175 -25z"/>
</g>
</svg>
