<?xml version="1.0" standalone="no"?>
<!DOCTYPE svg PUBLIC "-//W3C//DTD SVG 20010904//EN"
 "http://www.w3.org/TR/2001/REC-SVG-20010904/DTD/svg10.dtd">
<svg version="1.0" xmlns="http://www.w3.org/2000/svg"
 width="512.000000pt" height="512.000000pt" viewBox="0 0 512.000000 512.000000"
 preserveAspectRatio="xMidYMid meet">

<g transform="translate(0.000000,512.000000) scale(0.100000,-0.100000)"
fill="#000000" stroke="none">
<path d="M2421 5109 c-71 -14 -137 -38 -154 -57 -8 -9 -18 -40 -22 -68 l-7
-52 -42 -4 c-66 -8 -116 -37 -191 -113 -77 -77 -119 -142 -171 -263 -60 -139
-77 -220 -77 -372 0 -74 2 -146 4 -158 4 -21 -3 -26 -54 -42 -85 -27 -107 -44
-107 -85 0 -24 7 -39 22 -49 28 -20 100 -43 158 -50 l45 -7 -9 -64 -10 -65
-36 0 c-46 0 -93 -30 -127 -81 -22 -33 -27 -53 -28 -100 0 -100 51 -144 168
-144 l69 -1 31 -59 c59 -111 192 -223 333 -280 l57 -23 -59 -8 c-76 -9 -369 2
-531 21 -412 49 -772 179 -1001 362 -26 21 -51 33 -64 31 -41 -6 -48 -83 -38
-453 5 -181 12 -367 16 -412 l7 -82 -29 -6 c-150 -33 -236 -125 -236 -255 0
-75 28 -137 85 -185 46 -40 119 -66 162 -57 26 4 28 3 21 -19 -36 -128 -49
-204 -49 -289 0 -103 12 -149 43 -157 11 -3 29 -20 40 -39 61 -98 225 -197
485 -294 231 -86 521 -160 740 -190 44 -6 91 -13 103 -16 l24 -5 -4 -177 c-4
-213 -3 -212 -120 -279 -147 -86 -217 -167 -251 -293 -26 -94 -28 -127 -8
-152 l18 -22 79 23 c127 37 166 42 414 50 142 5 247 13 265 20 119 48 149 207
105 551 -11 85 -20 176 -20 202 l0 47 188 -5 c332 -8 392 -13 392 -34 0 -9 9
-107 20 -216 10 -110 24 -264 31 -344 6 -80 15 -152 20 -161 7 -14 43 -17 251
-22 255 -7 319 -16 461 -63 75 -25 79 -25 98 -8 35 32 21 177 -27 279 -32 67
-101 150 -155 186 -51 34 -139 69 -174 69 -13 0 -26 3 -28 8 -3 4 -8 73 -12
154 l-7 146 43 6 c24 3 87 10 139 16 121 14 277 45 360 72 105 34 101 29 83
95 -8 32 -16 59 -17 60 -2 2 -34 -8 -72 -21 -72 -24 -234 -59 -364 -77 -224
-32 -1382 -18 -1690 21 -629 79 -1106 234 -1312 428 -47 44 -53 83 -43 298 l7
162 27 12 c45 18 119 91 146 144 44 85 31 211 -28 274 -28 30 -70 52 -99 52
l-23 0 -1 283 c0 246 -10 411 -31 537 l-5 35 38 -36 c243 -227 617 -340 1225
-371 391 -20 787 10 1144 86 448 97 924 278 1295 494 47 28 86 49 87 48 1 -1
-3 -22 -8 -46 -7 -30 -7 -103 0 -224 6 -99 11 -329 11 -511 l0 -331 -44 -31
c-62 -44 -97 -108 -104 -188 -3 -41 0 -76 8 -97 15 -37 57 -98 68 -98 4 0 20
18 35 41 26 36 28 42 14 62 -51 80 -11 196 87 248 43 22 44 22 90 5 26 -10 56
-31 68 -47 l21 -28 39 21 c21 12 38 25 38 30 0 4 -16 26 -36 48 -35 38 -91 63
-132 59 -55 -5 -52 -33 -52 389 0 456 -6 722 -17 732 -11 11 -116 40 -142 40
-28 0 -251 -82 -646 -238 -181 -71 -370 -144 -418 -161 l-89 -31 56 62 c31 35
72 96 93 136 l36 72 59 0 c98 0 175 55 198 140 28 102 -53 189 -175 190 l-50
0 -12 62 c-14 70 -9 78 43 78 17 0 56 5 85 10 67 12 89 36 89 97 0 36 -6 50
-29 74 -19 19 -40 29 -59 29 l-29 0 -1 113 c-1 136 -25 237 -82 352 -82 166
-195 282 -350 358 -83 41 -88 42 -185 42 l-100 0 -21 40 c-49 96 -211 146
-373 114z m230 -166 c18 -17 21 -32 20 -83 -1 -34 -3 -66 -6 -70 -7 -11 -53
-485 -60 -622 l-7 -118 -77 0 -78 0 -7 143 c-3 78 -11 194 -16 257 -5 63 -9
202 -9 307 -1 192 -1 193 22 197 12 3 31 7 42 10 11 3 50 4 88 3 53 -2 71 -7
88 -24z m260 -89 c175 -52 392 -218 451 -345 47 -101 60 -158 65 -296 l6 -131
-44 -6 c-95 -11 -203 -16 -424 -17 l-230 -1 2 114 c3 130 25 340 54 513 11 66
22 135 25 153 6 37 16 39 95 16z m-651 -404 c12 -117 51 -287 81 -357 11 -25
18 -47 16 -49 -2 -2 -110 -9 -241 -15 -204 -11 -239 -10 -247 2 -14 22 -11
158 6 255 41 231 129 383 295 505 l65 48 7 -141 c4 -78 12 -190 18 -248z
m1077 -607 c15 -53 8 -254 -10 -322 -65 -240 -245 -409 -504 -473 -69 -17
-118 -22 -228 -22 -151 0 -242 15 -356 59 -129 51 -184 97 -243 205 -54 99
-77 202 -101 437 l-6 61 53 6 c29 3 114 13 188 21 186 20 456 35 684 36 158 1
390 9 493 17 17 2 25 -5 30 -25z m208 -197 c43 -18 54 -54 31 -103 -17 -36
-79 -72 -125 -73 -19 0 -22 4 -17 23 3 12 9 55 13 95 6 71 6 72 35 72 16 0 44
-6 63 -14z m-1741 -93 c3 -21 8 -62 12 -92 l6 -54 -46 5 c-60 7 -76 22 -76 70
0 32 7 47 34 74 45 45 63 44 70 -3z m-1143 -1229 c17 -8 37 -13 44 -10 7 2 23
-6 36 -20 46 -49 19 -157 -55 -222 -105 -92 -267 -17 -241 111 25 119 129 187
216 141z m1542 -1457 c36 -24 93 -54 126 -67 39 -16 62 -31 65 -44 3 -11 4
-22 2 -24 -2 -2 -53 21 -112 51 -60 30 -134 65 -164 77 -30 13 -62 29 -70 37
-12 11 -7 13 36 13 43 0 61 -7 117 -43z m148 23 c33 0 39 -3 39 -21 0 -23 -20
-20 -80 13 -19 10 -27 17 -17 14 10 -3 36 -6 58 -6z m1085 -45 c3 -20 4 -38 1
-42 -3 -3 -44 10 -91 28 l-86 34 67 6 c38 3 76 6 85 7 12 1 19 -8 24 -33z
m-202 -34 c58 -32 126 -64 152 -71 41 -12 65 -33 52 -46 -3 -2 -38 11 -79 29
-41 19 -108 47 -149 62 -74 28 -100 47 -100 72 0 21 13 16 124 -46z m-1005
-73 c57 -37 119 -72 138 -79 18 -6 33 -17 33 -25 0 -19 -7 -18 -41 7 -42 29
-165 84 -234 104 -68 20 -75 27 -75 73 l0 34 38 -23 c20 -13 84 -54 141 -91z
m1046 -38 c75 -33 144 -60 155 -60 16 0 20 -7 20 -35 0 -19 -1 -35 -2 -35 -2
0 -70 27 -153 60 -149 59 -150 59 -156 95 -3 19 -4 35 -3 35 2 0 64 -27 139
-60z m-1161 -10 c25 -10 92 -48 148 -83 57 -35 113 -70 126 -76 12 -6 22 -20
22 -31 0 -18 -4 -17 -62 9 -35 16 -112 51 -173 79 -109 49 -110 50 -113 86 -2
20 -1 36 2 36 2 0 25 -9 50 -20z m1114 -89 c31 -16 129 -70 217 -120 88 -51
194 -108 235 -127 124 -57 123 -56 143 -108 l18 -49 -24 16 c-154 100 -212
136 -332 199 -77 41 -182 93 -232 118 -85 40 -93 46 -93 72 0 15 2 28 5 28 3
0 31 -13 63 -29z m-1031 -88 c43 -27 107 -58 143 -70 65 -22 65 -22 68 -62 2
-23 1 -41 -2 -41 -15 0 -180 76 -242 111 -60 35 -74 47 -79 73 -4 17 -9 40
-12 51 -5 18 -5 18 20 2 15 -9 61 -38 104 -64z m1133 -102 c80 -55 187 -128
238 -162 51 -34 90 -64 88 -66 -5 -5 -439 260 -468 285 -18 15 -24 42 -10 42
4 0 72 -45 152 -99z m-1117 -54 c82 -54 126 -78 169 -91 11 -3 15 -11 12 -21
-9 -21 -15 -19 -75 21 -60 40 -167 96 -248 129 l-54 23 29 15 c26 14 31 14 54
-1 14 -9 65 -43 113 -75z m1078 -32 c55 -41 117 -85 139 -97 39 -22 51 -38 29
-38 -5 0 -40 18 -76 40 -37 22 -70 40 -75 40 -18 0 -118 72 -118 84 0 8 -3 21
-6 30 -3 9 -3 16 1 16 4 0 51 -34 106 -75z m-1253 28 c37 -20 116 -68 176
-107 88 -56 105 -71 90 -77 -34 -13 -57 -9 -89 15 -17 14 -76 50 -131 82 -54
31 -112 66 -128 77 -27 19 -28 21 -10 34 23 17 15 19 92 -24z m6 -132 c66 -49
67 -51 38 -51 -19 0 -53 15 -89 39 -32 21 -80 51 -107 66 l-48 27 28 19 28 18
41 -33 c22 -18 71 -56 109 -85z m-64 -53 c0 -20 -44 -4 -114 40 -69 44 -74 50
-60 64 15 15 23 11 95 -40 43 -30 79 -59 79 -64z m1270 66 c22 -15 40 -28 40
-30 0 -2 -20 -4 -45 -4 -43 0 -45 1 -45 30 0 17 2 30 5 30 3 0 23 -12 45 -26z
m-1389 -86 c-29 -12 -46 -8 -80 21 -23 19 -32 33 -28 44 5 14 15 11 65 -21 44
-28 55 -39 43 -44z"/>
<path d="M3046 3688 c-57 -89 1 -245 67 -180 23 24 25 80 4 152 -15 53 -46 66
-71 28z"/>
<path d="M2146 3658 c-25 -36 -21 -104 9 -133 29 -29 38 -31 60 -8 20 19 17
66 -8 126 -18 42 -39 47 -61 15z"/>
<path d="M2807 3472 c-12 -13 -17 -37 -17 -78 0 -73 -15 -97 -75 -119 -58 -23
-154 -17 -193 12 -42 31 -69 77 -76 133 -5 41 -10 51 -24 48 -48 -9 -53 -120
-9 -187 50 -76 206 -128 302 -102 58 15 131 65 150 101 36 70 28 177 -16 200
-23 13 -23 13 -42 -8z"/>
<path d="M4212 1683 c-95 -223 -103 -479 -21 -701 53 -146 130 -262 246 -373
166 -159 372 -250 616 -273 l67 -7 0 45 0 44 -57 7 c-397 49 -738 345 -845
733 -31 111 -31 382 -1 492 12 41 20 76 18 78 -1 1 -11 -19 -23 -45z"/>
</g>
</svg>
