<?xml version="1.0" standalone="no"?>
<!DOCTYPE svg PUBLIC "-//W3C//DTD SVG 20010904//EN"
 "http://www.w3.org/TR/2001/REC-SVG-20010904/DTD/svg10.dtd">
<svg version="1.0" xmlns="http://www.w3.org/2000/svg"
 width="499.000000pt" height="80.000000pt" viewBox="0 0 499.000000 80.000000"
 preserveAspectRatio="xMidYMid meet">

<g transform="translate(0.000000,80.000000) scale(0.100000,-0.100000)"
fill="#000000" stroke="none">
<path d="M2725 750 c-11 -4 -55 -44 -97 -88 l-78 -80 3 -81 c3 -56 0 -78 -7
-71 -14 14 -59 13 -80 -3 -22 -16 -116 -229 -116 -263 0 -31 33 -64 66 -64 30
0 231 84 256 107 10 9 18 23 19 32 0 9 9 -2 19 -25 21 -47 58 -80 101 -89 24
-6 28 -9 18 -21 -9 -11 -7 -14 10 -14 11 0 21 6 21 14 0 7 20 19 45 26 55 15
62 25 40 50 -13 15 -22 17 -36 10 -48 -26 -119 0 -119 43 0 15 13 17 90 17
l90 0 0 40 c0 81 -49 130 -130 130 -59 0 -98 -24 -121 -73 -10 -23 -19 -50
-19 -60 0 -12 -9 -7 -34 20 -27 31 -33 44 -29 70 3 20 -1 40 -11 55 -19 27
-20 39 -3 32 25 -9 69 16 134 79 100 96 114 137 64 188 -30 29 -58 35 -96 19z
m62 -66 c8 -22 -139 -169 -161 -161 -30 12 -16 41 51 109 67 68 98 82 110 52z
m-252 -324 c14 -16 16 -23 7 -32 -15 -15 -16 -45 -2 -53 6 -4 21 0 34 9 22 14
25 13 40 -3 9 -10 16 -22 16 -27 0 -12 -208 -99 -217 -91 -9 10 79 217 92 217
7 0 20 -9 30 -20z m343 -2 c7 -7 12 -25 12 -40 0 -26 -3 -28 -42 -28 -24 0
-49 4 -56 8 -13 9 -8 35 11 60 12 15 59 16 75 0z"/>
<path d="M1432 540 c-32 -30 -23 -45 29 -46 24 -1 53 -4 64 -8 23 -8 79 28 72
48 -2 6 -24 12 -48 12 -24 1 -55 5 -69 9 -18 4 -31 0 -48 -15z"/>
<path d="M3733 533 c-23 -4 -23 -5 -23 -204 l0 -199 40 0 c22 0 40 5 40 10 0
6 13 4 30 -5 46 -24 78 -19 115 18 82 82 45 267 -54 267 -20 0 -46 -7 -57 -15
-12 -8 -24 -11 -28 -8 -3 3 -6 37 -6 75 0 73 1 72 -57 61z m141 -179 c19 -18
22 -124 6 -155 -15 -27 -66 -26 -81 2 -17 34 -7 139 16 155 24 18 40 18 59 -2z"/>
<path d="M135 494 c-74 -38 -100 -97 -93 -205 6 -75 21 -105 72 -143 33 -25
132 -29 184 -7 l32 13 0 94 0 94 -65 0 c-63 0 -65 -1 -65 -25 0 -20 5 -25 26
-25 24 0 25 -2 22 -52 l-3 -53 -39 0 c-57 0 -77 31 -78 121 0 83 17 126 60
143 24 10 36 10 65 -2 32 -14 37 -14 51 2 22 24 20 28 -14 46 -38 19 -117 19
-155 -1z"/>
<path d="M3432 490 c-52 -32 -75 -96 -70 -190 5 -90 26 -133 78 -162 25 -14
48 -18 79 -15 90 10 136 76 135 197 0 88 -27 151 -74 175 -41 21 -108 19 -148
-5z m109 -49 c19 -16 24 -30 27 -90 7 -120 -12 -171 -63 -171 -32 0 -51 32
-59 95 -8 70 7 145 34 167 28 22 32 22 61 -1z"/>
<path d="M1138 483 c-22 -3 -27 -10 -30 -36 -2 -27 -8 -33 -30 -35 -22 -3 -28
-9 -28 -28 0 -20 5 -24 30 -24 l30 0 0 -89 c0 -79 2 -91 24 -114 30 -32 80
-42 134 -27 47 12 47 12 30 39 -9 15 -19 18 -45 14 -52 -9 -63 8 -63 98 l0 78
43 3 c34 2 43 7 45 25 3 19 -2 22 -40 25 -42 3 -43 4 -46 41 -2 21 -8 36 -15
36 -7 -1 -24 -4 -39 -6z"/>
<path d="M1768 455 c-12 -14 -29 -25 -38 -25 -10 0 -20 -16 -29 -47 -7 -27
-19 -58 -27 -69 -7 -12 -16 -44 -20 -72 -6 -46 -4 -51 19 -66 14 -10 30 -30
37 -46 6 -16 20 -36 31 -46 29 -26 23 -34 -23 -34 -24 0 -50 -5 -58 -10 -10
-7 7 -10 58 -10 39 0 72 3 72 8 0 4 27 7 60 7 33 0 60 -3 60 -7 0 -5 33 -8 73
-7 75 0 70 17 -5 18 -21 1 -38 3 -38 6 0 2 11 21 25 41 14 20 25 43 25 50 0 7
12 19 28 26 29 14 41 50 23 72 -6 8 -9 20 -6 27 14 40 -36 59 -152 59 -58 0
-93 4 -84 9 9 6 12 24 10 60 -4 57 7 68 60 56 28 -6 28 -7 20 -52 -10 -49 -6
-63 17 -63 9 0 14 11 14 36 0 24 4 34 13 31 6 -2 10 -11 8 -18 -9 -36 -5 -43
27 -45 25 -1 32 2 32 17 0 10 -5 21 -11 24 -6 4 -8 13 -5 21 4 9 -4 18 -22 25
-14 6 -35 19 -45 30 -13 14 -31 19 -72 19 -46 0 -59 -4 -77 -25z m7 -114 c-8
-8 -25 51 -18 62 4 7 10 -3 14 -23 4 -19 6 -37 4 -39z m10 -41 c4 -6 53 -10
116 -10 66 0 109 -4 109 -10 0 -6 -60 -10 -160 -10 -100 0 -160 4 -160 10 0 6
13 10 29 10 17 0 33 5 36 10 3 6 10 10 15 10 5 0 12 -4 15 -10z m-95 -87 c0
-20 -3 -24 -11 -16 -7 7 -9 19 -6 27 10 24 17 19 17 -11z m284 4 c8 -33 -10
-90 -36 -115 -89 -83 -218 -22 -218 102 l0 36 124 0 c121 0 124 -1 130 -23z
m46 -2 c0 -8 -4 -17 -10 -20 -6 -4 -10 5 -10 20 0 15 4 24 10 20 6 -3 10 -12
10 -20z"/>
<path d="M1760 215 c-11 -13 -8 -15 20 -15 21 0 30 4 28 13 -7 18 -33 20 -48
2z"/>
<path d="M1887 224 c-15 -15 -6 -24 24 -24 20 0 29 4 27 13 -5 14 -40 21 -51
11z"/>
<path d="M1770 140 c0 -5 14 -17 31 -26 36 -18 90 -12 109 12 17 20 7 28 -18
15 -26 -14 -79 -14 -87 -1 -8 13 -35 13 -35 0z"/>
<path d="M444 401 c-18 -11 -38 -36 -47 -60 -55 -135 44 -249 183 -212 59 16
68 26 46 50 -14 15 -23 18 -37 11 -48 -26 -119 0 -119 43 0 15 13 17 90 17
l90 0 0 40 c0 82 -49 130 -132 130 -25 0 -56 -8 -74 -19z m114 -43 c7 -7 12
-25 12 -40 0 -26 -3 -28 -42 -28 -24 0 -49 4 -56 8 -13 9 -8 35 11 60 12 15
59 16 75 0z"/>
<path d="M759 391 c-54 -54 -27 -114 63 -140 72 -22 90 -51 43 -73 -19 -9 -34
-7 -70 7 -45 16 -47 16 -60 -1 -21 -27 -19 -30 25 -48 70 -28 166 -15 195 27
18 26 20 77 3 100 -7 9 -42 27 -78 39 -66 23 -80 41 -48 62 12 7 29 7 60 -1
30 -8 47 -8 55 -1 37 31 -9 58 -98 58 -54 0 -64 -3 -90 -29z"/>
<path d="M1413 410 c-15 -6 -20 -15 -16 -30 5 -19 10 -21 58 -15 46 6 56 4 75
-15 32 -32 20 -44 -49 -51 -94 -9 -134 -58 -105 -128 22 -51 93 -67 150 -32
26 16 34 17 45 6 8 -7 24 -16 36 -19 18 -6 24 -2 28 16 3 13 1 36 -4 52 -6 15
-11 60 -11 101 0 103 -14 119 -111 122 -41 2 -84 -1 -96 -7z m132 -179 c0 -35
-46 -67 -74 -52 -26 14 -28 56 -3 70 9 6 31 10 47 8 24 -2 30 -7 30 -26z"/>
<path d="M4198 389 c-31 -30 -47 -27 -48 9 0 8 -17 12 -50 12 -43 0 -50 -3
-50 -20 0 -11 7 -20 15 -20 12 0 15 -17 15 -95 0 -78 -3 -95 -15 -95 -9 0 -15
-9 -15 -25 0 -25 1 -25 85 -25 84 0 85 0 85 25 0 20 -5 25 -25 25 -24 0 -25 3
-25 55 0 46 5 60 28 86 30 34 52 33 52 -2 0 -12 7 -19 20 -19 23 0 26 6 35 73
l6 47 -41 0 c-33 0 -48 -6 -72 -31z"/>
<path d="M4413 410 c-15 -6 -20 -15 -16 -30 5 -19 10 -21 58 -15 46 6 56 4 75
-15 32 -32 20 -44 -49 -51 -94 -9 -134 -58 -105 -128 22 -51 93 -67 150 -32
26 16 34 17 45 6 8 -7 24 -16 36 -19 18 -6 24 -2 28 16 3 13 1 36 -4 52 -6 15
-11 60 -11 101 0 103 -14 119 -111 122 -41 2 -84 -1 -96 -7z m132 -179 c0 -35
-46 -67 -74 -52 -26 14 -28 56 -3 70 9 6 31 10 47 8 24 -2 30 -7 30 -26z"/>
<path d="M4749 391 c-54 -54 -27 -114 63 -140 72 -22 90 -51 43 -73 -19 -9
-34 -7 -70 7 -45 16 -47 16 -60 -1 -21 -27 -19 -30 25 -48 70 -28 166 -15 195
27 18 26 20 77 3 100 -7 9 -42 27 -78 39 -66 23 -80 41 -48 62 12 7 29 7 60
-1 30 -8 47 -8 55 -1 37 31 -9 58 -98 58 -54 0 -64 -3 -90 -29z"/>
</g>
</svg>
